<svg xmlns="http://www.w3.org/2000/svg" width="115" height="22" viewBox="0 0 115 22" fill="none">
  <path fill-rule="evenodd" clip-rule="evenodd"
    d="M29.2268 8.35272H35.9283V17.946H35.9769C38.6232 17.946 40.7685 15.8597 40.7685 13.2859V8.35272H47.6563V4.36969H29.2268V8.35272Z"
    fill="white" />
  <path fill-rule="evenodd" clip-rule="evenodd"
    d="M61.31 13.9652H56.704C55.0975 13.9652 53.7094 12.7673 53.6343 11.2065C53.5546 9.54685 54.9199 8.17154 56.6097 8.17154H61.2155C62.822 8.17154 64.2103 9.36962 64.2852 10.9302C64.3649 12.5903 62.9994 13.9652 61.31 13.9652ZM62.4482 4.18872H55.4715C51.5807 4.18872 48.3975 7.28455 48.3975 11.0683C48.3975 14.8521 51.5807 17.9482 55.4715 17.9482H62.4482C66.3388 17.9482 69.5222 14.8521 69.5222 11.0683C69.5222 7.28455 66.3388 4.18872 62.4482 4.18872Z"
    fill="white" />
  <path fill-rule="evenodd" clip-rule="evenodd"
    d="M105.95 13.9652H101.344C99.7372 13.9652 98.3489 12.7673 98.2739 11.2065C98.1942 9.54685 99.5597 8.17154 101.249 8.17154H105.855C107.462 8.17154 108.85 9.36962 108.925 10.9302C109.005 12.5903 107.639 13.9652 105.95 13.9652ZM107.088 4.18872H100.111C96.2204 4.18872 93.0372 7.28455 93.0372 11.0683C93.0372 14.8521 96.2204 17.9482 100.111 17.9482H107.088C110.979 17.9482 114.162 14.8521 114.162 11.0683C114.162 7.28455 110.979 4.18872 107.088 4.18872Z"
    fill="white" />
  <path fill-rule="evenodd" clip-rule="evenodd"
    d="M85.26 9.27088C85.26 9.96069 84.6794 10.5255 83.9697 10.5255H77.4405V7.99097H83.9697C84.6794 7.99097 85.26 8.55557 85.26 9.2458V9.27088ZM90.1619 9.4769C90.1619 8.12195 89.5926 6.89077 88.6732 5.99617C87.7553 5.10363 86.4891 4.54993 85.0961 4.54993H72.0426V12.2012V14.5081V17.7664H77.2545V14.5081H82.7647L84.6978 17.7664H90.1619L87.818 13.6263C89.2241 12.7479 90.1619 11.2137 90.1619 9.4769Z"
    fill="white" />
  <path fill-rule="evenodd" clip-rule="evenodd"
    d="M10.6111 21.8606V16.4558C10.6111 16.3976 10.5434 16.3645 10.4952 16.3992C7.73844 18.3883 4.6009 20.2017 1.15068 21.7968C1.08092 21.8293 1.10459 21.9313 1.18197 21.9313H10.5384C10.5785 21.9313 10.6111 21.8994 10.6111 21.8606Z"
    fill="#00BCD4" />
  <mask id="mask0_1_160" style="mask-type:luminance" maskUnits="userSpaceOnUse" x="0" y="0" width="22" height="15">
    <path fill-rule="evenodd" clip-rule="evenodd" d="M0 7.25238V0.205566H21.7927V14.2992H0V7.25238Z" fill="white" />
  </mask>
  <g mask="url(#mask0_1_160)">
    <path fill-rule="evenodd" clip-rule="evenodd"
      d="M21.7793 0.31715C21.8133 0.270272 21.7787 0.205505 21.7199 0.205505H7.50909C3.36206 0.205505 0 3.44814 0 7.44803V14.2283C0 14.2769 0.0490472 14.311 0.0961917 14.2954C9.7902 11.1202 17.509 6.16627 21.7793 0.31715Z"
      fill="#00BCD4" />
  </g>
  <path fill-rule="evenodd" clip-rule="evenodd"
    d="M14.5203 13.2995V21.8606C14.5203 21.8995 14.5528 21.9312 14.593 21.9312H14.8302C18.977 21.9312 22.3389 18.6887 22.3389 14.6888V2.20044C22.3389 2.12087 22.2245 2.10195 22.1976 2.17721C20.7937 6.12364 18.1635 9.87227 14.5425 13.2488C14.5283 13.2619 14.5203 13.2802 14.5203 13.2995Z"
    fill="#00BCD4" />
</svg>